<svg xmlns="http://www.w3.org/2000/svg" width="390" height="844" viewBox="0 0 390 844">
  <defs>
    <linearGradient id="bg3" x1="0" y1="0" x2="1" y2="1">
      <stop offset="0%" stop-color="#0f172a"/>
      <stop offset="100%" stop-color="#1e293b"/>
    </linearGradient>
  </defs>
  <rect width="390" height="844" fill="url(#bg3)"/>
  <rect x="18" y="26" width="354" height="792" rx="38" fill="#0f172a" stroke="#334155"/>
  <text x="40" y="108" fill="#f8fafc" font-size="18" font-family="Inter, Arial">7-day Itinerary Builder</text>
  <rect x="40" y="126" width="310" height="42" rx="18" fill="#ffffff18"/>
  <rect x="40" y="184" width="150" height="100" rx="14" fill="#ffffff12"/>
  <rect x="200" y="184" width="150" height="100" rx="14" fill="#ffffff12"/>
  <rect x="40" y="294" width="150" height="100" rx="14" fill="#ffffff12"/>
  <rect x="200" y="294" width="150" height="100" rx="14" fill="#ffffff12"/>
  <rect x="40" y="404" width="150" height="100" rx="14" fill="#ffffff12"/>
  <rect x="200" y="404" width="150" height="100" rx="14" fill="#ffffff12"/>
  <rect x="40" y="514" width="150" height="100" rx="14" fill="#ffffff12"/>
  <rect x="200" y="514" width="150" height="100" rx="14" fill="#ffffff12"/>
  <rect x="40" y="634" width="310" height="64" rx="18" fill="#10b981"/>
</svg>
