<svg xmlns="http://www.w3.org/2000/svg" width="390" height="844" viewBox="0 0 390 844">
  <defs>
    <linearGradient id="bg4" x1="0" y1="0" x2="1" y2="1">
      <stop offset="0%" stop-color="#0f172a"/>
      <stop offset="100%" stop-color="#1e293b"/>
    </linearGradient>
  </defs>
  <rect width="390" height="844" fill="url(#bg4)"/>
  <rect x="18" y="26" width="354" height="792" rx="38" fill="#0f172a" stroke="#334155"/>
  <text x="40" y="108" fill="#f8fafc" font-size="18" font-family="Inter, Arial">Local Guides + Booking</text>
  <rect x="40" y="130" width="310" height="180" rx="18" fill="#ffffff14"/>
  <circle cx="95" cy="188" r="30" fill="#f59e0b"/>
  <rect x="140" y="166" width="180" height="14" rx="7" fill="#ffffff35"/>
  <rect x="140" y="190" width="130" height="12" rx="6" fill="#ffffff25"/>
  <rect x="140" y="212" width="160" height="12" rx="6" fill="#ffffff25"/>
  <rect x="40" y="326" width="310" height="180" rx="18" fill="#ffffff14"/>
  <circle cx="95" cy="384" r="30" fill="#10b981"/>
  <rect x="140" y="362" width="180" height="14" rx="7" fill="#ffffff35"/>
  <rect x="140" y="386" width="130" height="12" rx="6" fill="#ffffff25"/>
  <rect x="140" y="408" width="160" height="12" rx="6" fill="#ffffff25"/>
  <rect x="40" y="534" width="310" height="70" rx="22" fill="#f59e0b"/>
  <text x="126" y="577" fill="#0f172a" font-size="18" font-family="Inter, Arial">Book on WhatsApp</text>
</svg>
